<svg width="151" height="116" viewBox="0 0 151 116" fill="none" xmlns="http://www.w3.org/2000/svg">
<path d="M127.765 10.0572C118.201 5.60212 107.847 2.36859 97.0609 0.500331C96.9663 0.497308 96.8722 0.515043 96.7853 0.552288C96.6983 0.589533 96.6206 0.645384 96.5575 0.715901C95.2632 3.08715 93.7532 6.17697 92.7465 8.54822C81.3061 6.82367 69.6716 6.82367 58.2313 8.54822C57.2246 6.10511 55.7145 3.08715 54.3483 0.715901C54.2764 0.572188 54.0607 0.500331 53.8449 0.500331C43.0589 2.36859 32.7763 5.60212 23.1408 10.0572C23.0689 10.0572 22.997 10.1291 22.925 10.2009C3.36642 39.4464 -2.02659 67.9014 0.633959 96.0691C0.633959 96.2128 0.705866 96.3565 0.849679 96.4283C13.7929 105.913 26.2328 111.662 38.5288 115.47C38.7445 115.542 38.9602 115.47 39.0322 115.327C41.9084 111.374 44.4971 107.207 46.7262 102.824C46.87 102.536 46.7262 102.249 46.4385 102.177C42.3399 100.596 38.4569 98.7277 34.6458 96.5721C34.3582 96.4283 34.3582 95.9972 34.5739 95.7816C35.3649 95.2068 36.1559 94.5601 36.9469 93.9852C37.0907 93.8415 37.3064 93.8415 37.4502 93.9134C62.1861 105.195 88.8635 105.195 113.312 93.9134C113.456 93.8415 113.671 93.8415 113.815 93.9852C114.606 94.6319 115.397 95.2068 116.188 95.8535C116.476 96.0691 116.476 96.5002 116.116 96.6439C112.377 98.8714 108.422 100.668 104.323 102.249C104.036 102.321 103.964 102.68 104.036 102.895C106.337 107.279 108.926 111.446 111.73 115.398C111.946 115.47 112.161 115.542 112.377 115.47C124.745 111.662 137.185 105.913 150.128 96.4283C150.272 96.3565 150.344 96.2128 150.344 96.0691C153.508 63.5182 145.095 35.2787 128.053 10.2009C127.981 10.1291 127.909 10.0572 127.765 10.0572ZM50.4653 78.8954C43.0589 78.8954 36.875 72.0691 36.875 63.6619C36.875 55.2547 42.9151 48.4284 50.4653 48.4284C58.0874 48.4284 64.1276 55.3266 64.0557 63.6619C64.0557 72.0691 58.0155 78.8954 50.4653 78.8954ZM100.584 78.8954C93.1779 78.8954 86.9939 72.0691 86.9939 63.6619C86.9939 55.2547 93.0341 48.4284 100.584 48.4284C108.206 48.4284 114.247 55.3266 114.175 63.6619C114.175 72.0691 108.206 78.8954 100.584 78.8954Z" fill="#FEFEFE"/>
</svg>
