<svg width="130" height="130" viewBox="0 0 130 130" fill="none" xmlns="http://www.w3.org/2000/svg">
<path d="M71.6821 0.0079973C76.4251 -0.0102035 81.1681 0.0374666 85.9098 0.150993L87.1708 0.196491C88.6267 0.248489 90.0631 0.313487 91.7985 0.391484C98.7142 0.716473 103.433 1.80844 107.573 3.41388C111.863 5.06483 115.477 7.30075 119.091 10.9146C122.395 14.162 124.952 18.09 126.585 22.4257C128.19 26.5661 129.282 31.2914 129.607 38.2072C129.685 39.9361 129.75 41.3791 129.802 42.835L129.841 44.096C129.957 48.8356 130.006 53.5765 129.991 58.3175L129.997 63.1664V71.6811C130.013 76.4242 129.963 81.1673 129.848 85.9091L129.809 87.17C129.757 88.626 129.692 90.0624 129.614 91.7979C129.289 98.7136 128.184 103.432 126.585 107.573C124.958 111.913 122.4 115.844 119.091 119.09C115.841 122.394 111.911 124.952 107.573 126.585C103.433 128.19 98.7142 129.282 91.7985 129.607C90.0631 129.685 88.6267 129.75 87.1708 129.802L85.9098 129.841C81.1682 129.957 76.4251 130.006 71.6821 129.991L66.8333 129.997H58.3253C53.5822 130.013 48.8392 129.963 44.0975 129.848L42.8366 129.809C41.2936 129.753 39.751 129.688 38.2088 129.614C31.2931 129.289 26.5744 128.184 22.4276 126.585C18.0903 124.955 14.1616 122.398 10.9167 119.09C7.60865 115.842 5.04895 111.912 3.41608 107.573C1.81066 103.432 0.718713 98.7136 0.39373 91.7979C0.321343 90.2556 0.256345 88.713 0.19874 87.17L0.166243 85.9091C0.046412 81.1674 -0.00775766 76.4243 0.00375031 71.6811V58.3175C-0.01439 53.5766 0.0332793 48.8356 0.146743 44.096L0.192241 42.835C0.244238 41.3791 0.309235 39.9361 0.387231 38.2072C0.712214 31.2849 1.80416 26.5726 3.40957 22.4257C5.04341 18.0879 7.60813 14.1609 10.9232 10.9211C14.1658 7.61113 18.0921 5.04905 22.4276 3.41388C26.5744 1.80844 31.2866 0.716473 38.2088 0.391484L42.8366 0.196491L44.0975 0.163993C48.8369 0.0442204 53.5778 -0.00995019 58.3188 0.00149799L71.6821 0.0079973ZM65.0004 32.5069C60.6944 32.446 56.4193 33.2415 52.4234 34.8473C48.4275 36.453 44.7907 38.8369 41.7241 41.8604C38.6576 44.884 36.2225 48.4868 34.5604 52.4597C32.8984 56.4325 32.0425 60.696 32.0425 65.0025C32.0425 69.309 32.8984 73.5726 34.5604 77.5454C36.2225 81.5182 38.6576 85.1211 41.7241 88.1446C44.7907 91.1682 48.4275 93.5521 52.4234 95.1578C56.4193 96.7635 60.6944 97.5591 65.0004 97.4982C73.6195 97.4982 81.8856 94.0742 87.9802 87.9795C94.0748 81.8848 97.4987 73.6185 97.4987 64.9993C97.4987 56.38 94.0748 48.1138 87.9802 42.0191C81.8856 35.9244 73.6195 32.5069 65.0004 32.5069ZM65.0004 45.5065C67.5906 45.4587 70.1643 45.9276 72.5712 46.8857C74.9781 47.8439 77.17 49.272 79.0188 51.0868C80.8675 52.9016 82.3362 55.0665 83.3389 57.4553C84.3416 59.844 84.8582 62.4086 84.8586 64.9992C84.8591 67.5899 84.3433 70.1546 83.3414 72.5437C82.3395 74.9328 80.8716 77.0982 79.0234 78.9136C77.1752 80.729 74.9838 82.1579 72.5772 83.1168C70.1706 84.0757 67.5971 84.5455 65.0069 84.4986C59.8355 84.4986 54.8758 82.4442 51.219 78.7874C47.5623 75.1306 45.5079 70.1708 45.5079 64.9993C45.5079 59.8277 47.5623 54.868 51.219 51.2112C54.8758 47.5543 59.8355 45.4999 65.0069 45.4999L65.0004 45.5065ZM99.1237 22.7572C97.0268 22.8411 95.0438 23.7332 93.5899 25.2465C92.136 26.7597 91.324 28.7769 91.324 30.8754C91.324 32.974 92.136 34.9912 93.5899 36.5044C95.0438 38.0177 97.0268 38.9097 99.1237 38.9937C101.278 38.9937 103.345 38.1377 104.869 36.614C106.392 35.0903 107.248 33.0238 107.248 30.8689C107.248 28.7141 106.392 26.6476 104.869 25.1239C103.345 23.6002 101.278 22.7442 99.1237 22.7442V22.7572Z" fill="white"/>
</svg>
