<svg width="124" height="124" viewBox="0 0 124 124" fill="none" xmlns="http://www.w3.org/2000/svg">
<path d="M0 8.8815C0 3.97575 4.0765 0 9.10625 0H114.894C119.924 0 124 3.97575 124 8.8815V115.118C124 120.024 119.924 124 114.894 124H9.10625C4.0765 124 0 120.024 0 115.118V8.8815ZM38.3083 103.803V47.8097H19.7005V103.803H38.3083ZM29.0083 40.1605C35.495 40.1605 39.5327 35.867 39.5327 30.4885C39.4165 24.9937 35.5028 20.8165 29.1322 20.8165C22.7618 20.8165 18.6 25.0015 18.6 30.4885C18.6 35.867 22.6378 40.1605 28.8843 40.1605H29.0083ZM67.0452 103.803V72.5322C67.0452 70.8583 67.1693 69.1842 67.6653 67.9907C69.006 64.6505 72.0673 61.1862 77.2132 61.1862C83.948 61.1862 86.6373 66.3167 86.6373 73.8498V103.803H105.245V71.6875C105.245 54.4825 96.069 46.4845 83.824 46.4845C73.9505 46.4845 69.5253 51.9095 67.0452 55.7303V55.924H66.9212C66.9624 55.8593 67.0037 55.7947 67.0452 55.7303V47.8097H48.4452C48.6777 53.0643 48.4452 103.803 48.4452 103.803H67.0452Z" fill="white"/>
</svg>
