<svg width="1672" height="2332" viewBox="0 0 1672 2332" fill="none" xmlns="http://www.w3.org/2000/svg">
<path d="M1135.33 1075.07C971.311 1197.28 1007.25 1483.92 1050.35 1360.77C1130.4 1430.96 1044.77 1237.57 1184.59 1119.4C1356.99 973.688 1441.96 603.419 1356.99 614.501C1288.03 658.834 1315.48 940.84 1135.33 1075.07Z" fill="white"/>
<path d="M498.658 1056.6C646.92 1170.88 659.562 1487.91 603.331 1352.15C530.58 1456.89 577.472 1237.62 466.639 1124.33C293.843 1023.35 230.098 632.107 316.398 623.121C402.129 650.391 335.713 930.988 498.658 1056.6Z" fill="white"/>
<path d="M1157.49 504.9C1157.49 583.794 1221.45 647.75 1300.34 647.75C1379.24 647.75 1443.2 583.794 1443.2 504.9C1443.2 426.006 1379.24 362.05 1300.34 362.05C1221.45 362.05 1157.49 426.006 1157.49 504.9ZM1398.19 504.9C1398.19 558.94 1354.39 602.749 1300.34 602.749C1246.3 602.749 1202.5 558.94 1202.5 504.9C1202.5 450.859 1246.3 407.051 1300.34 407.051C1354.39 407.051 1398.19 450.859 1398.19 504.9Z" fill="#40CAFD"/>
<path d="M773.276 857.1C773.276 935.994 837.232 999.95 916.126 999.95C995.02 999.95 1058.98 935.994 1058.98 857.1C1058.98 778.206 995.02 714.25 916.126 714.25C837.232 714.25 773.276 778.206 773.276 857.1ZM1013.98 857.1C1013.98 911.14 970.167 954.949 916.126 954.949C862.085 954.949 818.277 911.14 818.277 857.1C818.277 803.06 862.085 759.251 916.126 759.251C970.167 759.251 1013.98 803.06 1013.98 857.1Z" fill="#40CAFD"/>
<path d="M568.853 561.547C568.853 640.441 632.809 704.397 711.703 704.397C790.597 704.397 854.554 640.441 854.554 561.547C854.554 482.653 790.597 418.697 711.703 418.697C632.809 418.697 568.853 482.653 568.853 561.547ZM809.552 561.547C809.552 615.587 765.744 659.395 711.703 659.395C657.663 659.395 613.854 615.587 613.854 561.547C613.854 507.506 657.663 463.698 711.703 463.698C765.744 463.698 809.552 507.506 809.552 561.547Z" fill="white"/>
<path d="M177.245 504.9C177.245 583.794 241.202 647.75 320.096 647.75C398.99 647.75 462.946 583.794 462.946 504.9C462.946 426.006 398.99 362.05 320.096 362.05C241.202 362.05 177.245 426.006 177.245 504.9ZM417.945 504.9C417.945 558.94 374.136 602.749 320.096 602.749C266.055 602.749 222.247 558.94 222.247 504.9C222.247 450.859 266.055 407.051 320.096 407.051C374.136 407.051 417.945 450.859 417.945 504.9Z" fill="#40CAFD"/>
<rect width="534.458" height="76.3508" transform="matrix(-1 0 0 1 1090.61 1347.22)" fill="white"/>
<rect width="443.329" height="76.3508" transform="matrix(-1 0 0 1 1044.2 1455.59)" fill="white"/>
<path d="M1002.33 1563.96H642.74V1625.53L802.703 1716.83C818.499 1725.84 837.944 1725.57 853.48 1716.12L1002.33 1625.53V1563.96Z" fill="white"/>
<path d="M724.018 1038.12C825.839 1200.68 843.815 1491.84 787.584 1356.07C737.173 1451.9 717.806 1212.99 659.532 1098.47C591.86 965.469 586.934 698.241 659.532 664.991C704.315 708.093 688.855 981.988 724.018 1038.12Z" fill="white"/>
<path d="M347.799 372.797C397.707 291.156 467.776 223.725 551.271 176.985C634.767 130.245 728.881 105.768 824.569 105.905C920.256 106.043 1014.3 130.792 1097.66 177.772C1181.02 224.752 1250.9 292.385 1300.57 374.169L1221.22 422.363C1179.81 354.189 1121.57 297.812 1052.08 258.65C982.591 219.488 904.198 198.858 824.435 198.743C744.672 198.628 666.22 219.032 596.62 257.994C527.02 296.955 468.611 353.165 427.009 421.219L347.799 372.797Z" fill="#40CAFD"/>
<path d="M629.302 155.369C700.239 155.175 770.034 173.231 831.978 207.801C893.921 242.372 945.931 292.294 983.009 352.771C1020.09 413.247 1040.98 482.244 1043.69 553.129C1046.4 624.015 1030.84 694.406 998.484 757.537L937.233 726.149C964.201 673.524 977.178 614.848 974.919 555.759C972.66 496.67 955.24 439.156 924.333 388.744C893.426 338.332 850.071 296.717 798.436 267.9C746.801 239.083 688.622 224.032 629.49 224.194L629.302 155.369Z" fill="#40CAFD"/>
<path d="M126.5 1943.44C190 1943.44 226 1978.94 232 2027.44H163C158.5 2002.94 145 1988.94 122 1988.94C101.5 1988.94 90.5 2000.94 90.5 2017.44C90.5 2037.44 107 2047.94 151 2058.94C205.5 2072.94 237.5 2094.94 237.5 2143.94C237.5 2197.44 189 2223.44 128 2223.44C63.5 2223.44 18 2195.44 10.5 2135.44H79.5C85 2164.44 105 2177.94 129 2177.94C151 2177.94 168 2168.44 168 2148.94C168 2128.44 150.5 2116.94 104.5 2105.44C55 2092.94 21 2071.44 21 2025.44C21 1974.44 63 1943.44 126.5 1943.44ZM327.535 1997.94V2120.94C327.535 2129.94 327.535 2137.44 328.035 2144.44C330.035 2170.44 339.535 2176.44 378.035 2173.44V2218.44C362.535 2220.94 348.035 2221.94 332.535 2221.94C281.035 2221.94 262.535 2204.94 259.535 2167.44C258.535 2155.44 258.535 2143.94 258.535 2128.94V1997.94H219.535V1952.44H258.535V1886.94H327.535V1952.44H382.535V1997.94H327.535ZM636.199 1950.44V2216.44H567.199V2171.44L546.699 2205.44C527.199 2218.44 508.199 2223.44 482.699 2223.44C427.699 2223.44 394.699 2192.44 388.699 2155.94C386.699 2142.44 386.199 2128.94 386.199 2107.44V1950.44H455.199V2092.94C455.199 2101.44 455.699 2115.94 457.199 2129.44C460.699 2156.94 476.699 2174.44 508.699 2174.44C543.199 2174.44 567.199 2145.94 567.199 2085.94V1950.44H636.199ZM923.281 1848.94V2216.44H854.281V2175.44L834.281 2204.94C819.281 2216.44 792.281 2223.44 765.281 2223.44C690.781 2223.44 646.781 2166.94 646.781 2088.44C646.781 1991.94 705.781 1943.44 774.281 1943.44C796.281 1943.44 823.281 1948.94 836.781 1958.44L854.281 1985.94V1848.94H923.281ZM785.281 2174.94C823.281 2174.94 854.281 2151.44 854.281 2086.44V2073.44C854.281 2013.44 819.781 1991.94 787.781 1991.94C747.781 1991.94 718.281 2022.44 718.281 2083.94C718.281 2138.44 744.281 2174.94 785.281 2174.94ZM1193.55 2077.94C1193.55 2084.44 1193.55 2092.44 1192.55 2101.44H1003.55C1008.05 2157.44 1033.05 2174.94 1065.05 2174.94C1094.55 2174.94 1116.05 2158.44 1120.55 2129.94H1189.55C1176.05 2191.94 1126.05 2223.44 1063.55 2223.44C990.547 2223.44 934.047 2177.94 934.047 2084.44C934.047 2002.94 987.547 1943.44 1069.05 1943.44C1150.55 1943.44 1193.55 2005.44 1193.55 2077.94ZM1066.05 1991.94C1034.05 1991.94 1011.55 2012.44 1005.55 2056.44H1122.55C1118.05 2014.44 1099.05 1991.94 1066.05 1991.94ZM1458.11 1950.44L1355.11 2216.44H1278.11L1174.61 1950.44H1251.11L1318.11 2164.44L1383.61 1950.44H1458.11ZM1549.31 1943.44C1612.81 1943.44 1648.81 1978.94 1654.81 2027.44H1585.81C1581.31 2002.94 1567.81 1988.94 1544.81 1988.94C1524.31 1988.94 1513.31 2000.94 1513.31 2017.44C1513.31 2037.44 1529.81 2047.94 1573.81 2058.94C1628.31 2072.94 1660.31 2094.94 1660.31 2143.94C1660.31 2197.44 1611.81 2223.44 1550.81 2223.44C1486.31 2223.44 1440.81 2195.44 1433.31 2135.44H1502.31C1507.81 2164.44 1527.81 2177.94 1551.81 2177.94C1573.81 2177.94 1590.81 2168.44 1590.81 2148.94C1590.81 2128.44 1573.31 2116.94 1527.31 2105.44C1477.81 2092.94 1443.81 2071.44 1443.81 2025.44C1443.81 1974.44 1485.81 1943.44 1549.31 1943.44Z" fill="white"/>
</svg>
