<svg width="149" height="104" viewBox="0 0 149 104" fill="none" xmlns="http://www.w3.org/2000/svg">
<path d="M59.6 74.2857L98.2655 52L59.6 29.7143V74.2857ZM145.722 16.12C146.69 19.6114 147.361 24.2914 147.808 30.2343C148.329 36.1771 148.553 41.3029 148.553 45.76L149 52C149 68.2686 147.808 80.2286 145.722 87.88C143.859 94.5657 139.538 98.8743 132.833 100.731C129.332 101.697 122.925 102.366 113.091 102.811C103.406 103.331 94.5405 103.554 86.3455 103.554L74.5 104C43.2845 104 23.84 102.811 16.1665 100.731C9.4615 98.8743 5.1405 94.5657 3.278 87.88C2.3095 84.3886 1.639 79.7086 1.192 73.7657C0.670501 67.8229 0.447 62.6971 0.447 58.24L0 52C0 35.7314 1.192 23.7714 3.278 16.12C5.1405 9.43429 9.4615 5.12571 16.1665 3.26857C19.668 2.30286 26.075 1.63428 35.909 1.18857C45.594 0.66857 54.4595 0.445714 62.6545 0.445714L74.5 0C105.715 0 125.16 1.18857 132.833 3.26857C139.538 5.12571 143.859 9.43429 145.722 16.12Z" fill="white"/>
</svg>
