<svg width="789" height="171" viewBox="0 0 789 171" fill="none" xmlns="http://www.w3.org/2000/svg">
<path d="M52.8 62C51.5333 59.6667 49.7 57.9 47.3 56.7C44.9667 55.4333 42.2 54.8 39 54.8C33.4667 54.8 29.0333 56.6333 25.7 60.3C22.3667 63.9 20.7 68.7333 20.7 74.8C20.7 81.2667 22.4333 86.3333 25.9 90C29.4333 93.6 34.2667 95.4 40.4 95.4C44.6 95.4 48.1333 94.3333 51 92.2C53.9333 90.0667 56.0667 87 57.4 83H35.7V70.4H72.9V86.3C71.6333 90.5667 69.4667 94.5333 66.4 98.2C63.4 101.867 59.5667 104.833 54.9 107.1C50.2333 109.367 44.9667 110.5 39.1 110.5C32.1667 110.5 25.9667 109 20.5 106C15.1 102.933 10.8667 98.7 7.8 93.3C4.8 87.9 3.3 81.7333 3.3 74.8C3.3 67.8667 4.8 61.7 7.8 56.3C10.8667 50.8333 15.1 46.6 20.5 43.6C25.9 40.5333 32.0667 39 39 39C47.4 39 54.4667 41.0333 60.2 45.1C66 49.1667 69.8333 54.8 71.7 62H52.8ZM134.972 81.2C134.972 82.8 134.872 84.4667 134.672 86.2H95.9719C96.2385 89.6667 97.3385 92.3333 99.2719 94.2C101.272 96 103.705 96.9 106.572 96.9C110.839 96.9 113.805 95.1 115.472 91.5H133.672C132.739 95.1667 131.039 98.4667 128.572 101.4C126.172 104.333 123.139 106.633 119.472 108.3C115.805 109.967 111.705 110.8 107.172 110.8C101.705 110.8 96.8385 109.633 92.5719 107.3C88.3052 104.967 84.9719 101.633 82.5719 97.3C80.1719 92.9667 78.9719 87.9 78.9719 82.1C78.9719 76.3 80.1385 71.2333 82.4719 66.9C84.8719 62.5667 88.2052 59.2333 92.4719 56.9C96.7385 54.5667 101.639 53.4 107.172 53.4C112.572 53.4 117.372 54.5333 121.572 56.8C125.772 59.0667 129.039 62.3 131.372 66.5C133.772 70.7 134.972 75.6 134.972 81.2ZM117.472 76.7C117.472 73.7667 116.472 71.4333 114.472 69.7C112.472 67.9667 109.972 67.1 106.972 67.1C104.105 67.1 101.672 67.9333 99.6719 69.6C97.7385 71.2667 96.5385 73.6333 96.0719 76.7H117.472ZM175.093 95.5V110H166.393C160.193 110 155.36 108.5 151.893 105.5C148.426 102.433 146.693 97.4667 146.693 90.6V68.4H139.893V54.2H146.693V40.6H163.793V54.2H174.993V68.4H163.793V90.8C163.793 92.4667 164.193 93.6667 164.993 94.4C165.793 95.1333 167.126 95.5 168.993 95.5H175.093ZM236.909 95.5V110H228.209C222.009 110 217.176 108.5 213.709 105.5C210.243 102.433 208.509 97.4667 208.509 90.6V68.4H201.709V54.2H208.509V40.6H225.609V54.2H236.809V68.4H225.609V90.8C225.609 92.4667 226.009 93.6667 226.809 94.4C227.609 95.1333 228.943 95.5 230.809 95.5H236.909ZM271.834 110.8C266.368 110.8 261.434 109.633 257.034 107.3C252.701 104.967 249.268 101.633 246.734 97.3C244.268 92.9667 243.034 87.9 243.034 82.1C243.034 76.3667 244.301 71.3333 246.834 67C249.368 62.6 252.834 59.2333 257.234 56.9C261.634 54.5667 266.568 53.4 272.034 53.4C277.501 53.4 282.434 54.5667 286.834 56.9C291.234 59.2333 294.701 62.6 297.234 67C299.768 71.3333 301.034 76.3667 301.034 82.1C301.034 87.8333 299.734 92.9 297.134 97.3C294.601 101.633 291.101 104.967 286.634 107.3C282.234 109.633 277.301 110.8 271.834 110.8ZM271.834 96C275.101 96 277.868 94.8 280.134 92.4C282.468 90 283.634 86.5667 283.634 82.1C283.634 77.6333 282.501 74.2 280.234 71.8C278.034 69.4 275.301 68.2 272.034 68.2C268.701 68.2 265.934 69.4 263.734 71.8C261.534 74.1333 260.434 77.5667 260.434 82.1C260.434 86.5667 261.501 90 263.634 92.4C265.834 94.8 268.568 96 271.834 96ZM365.398 110L348.398 86.6V110H331.298V36H348.398V76.9L365.298 54.2H386.398L363.198 82.2L386.598 110H365.398ZM427.114 53.6C433.647 53.6 438.847 55.7333 442.714 60C446.647 64.2 448.614 70 448.614 77.4V110H431.614V79.7C431.614 75.9667 430.647 73.0667 428.714 71C426.781 68.9333 424.181 67.9 420.914 67.9C417.647 67.9 415.047 68.9333 413.114 71C411.181 73.0667 410.214 75.9667 410.214 79.7V110H393.114V54.2H410.214V61.6C411.947 59.1333 414.281 57.2 417.214 55.8C420.147 54.3333 423.447 53.6 427.114 53.6ZM485.897 110.8C480.43 110.8 475.497 109.633 471.097 107.3C466.764 104.967 463.33 101.633 460.797 97.3C458.33 92.9667 457.097 87.9 457.097 82.1C457.097 76.3667 458.364 71.3333 460.897 67C463.43 62.6 466.897 59.2333 471.297 56.9C475.697 54.5667 480.63 53.4 486.097 53.4C491.564 53.4 496.497 54.5667 500.897 56.9C505.297 59.2333 508.764 62.6 511.297 67C513.83 71.3333 515.097 76.3667 515.097 82.1C515.097 87.8333 513.797 92.9 511.197 97.3C508.664 101.633 505.164 104.967 500.697 107.3C496.297 109.633 491.364 110.8 485.897 110.8ZM485.897 96C489.164 96 491.93 94.8 494.197 92.4C496.53 90 497.697 86.5667 497.697 82.1C497.697 77.6333 496.564 74.2 494.297 71.8C492.097 69.4 489.364 68.2 486.097 68.2C482.764 68.2 479.997 69.4 477.797 71.8C475.597 74.1333 474.497 77.5667 474.497 82.1C474.497 86.5667 475.564 90 477.697 92.4C479.897 94.8 482.63 96 485.897 96ZM604.269 54.2L589.169 110H570.269L561.469 73.8L552.369 110H533.569L518.369 54.2H535.469L543.369 94.1L552.769 54.2H570.869L580.369 93.9L588.169 54.2H604.269ZM687.081 54.2V110H669.981V102.4C668.248 104.867 665.881 106.867 662.881 108.4C659.948 109.867 656.681 110.6 653.081 110.6C648.815 110.6 645.048 109.667 641.781 107.8C638.515 105.867 635.981 103.1 634.181 99.5C632.381 95.9 631.481 91.6667 631.481 86.8V54.2H648.481V84.5C648.481 88.2333 649.448 91.1333 651.381 93.2C653.315 95.2667 655.915 96.3 659.181 96.3C662.515 96.3 665.148 95.2667 667.081 93.2C669.015 91.1333 669.981 88.2333 669.981 84.5V54.2H687.081ZM722.064 110.8C717.197 110.8 712.864 109.967 709.064 108.3C705.264 106.633 702.264 104.367 700.064 101.5C697.864 98.5667 696.631 95.3 696.364 91.7H713.264C713.464 93.6333 714.364 95.2 715.964 96.4C717.564 97.6 719.531 98.2 721.864 98.2C723.997 98.2 725.631 97.8 726.764 97C727.964 96.1333 728.564 95.0333 728.564 93.7C728.564 92.1 727.731 90.9333 726.064 90.2C724.397 89.4 721.697 88.5333 717.964 87.6C713.964 86.6667 710.631 85.7 707.964 84.7C705.297 83.6333 702.997 82 701.064 79.8C699.131 77.5333 698.164 74.5 698.164 70.7C698.164 67.5 699.031 64.6 700.764 62C702.564 59.3333 705.164 57.2333 708.564 55.7C712.031 54.1667 716.131 53.4 720.864 53.4C727.864 53.4 733.364 55.1333 737.364 58.6C741.431 62.0667 743.764 66.6667 744.364 72.4H728.564C728.297 70.4667 727.431 68.9333 725.964 67.8C724.564 66.6667 722.697 66.1 720.364 66.1C718.364 66.1 716.831 66.5 715.764 67.3C714.697 68.0333 714.164 69.0667 714.164 70.4C714.164 72 714.997 73.2 716.664 74C718.397 74.8 721.064 75.6 724.664 76.4C728.797 77.4667 732.164 78.5333 734.764 79.6C737.364 80.6 739.631 82.2667 741.564 84.6C743.564 86.8667 744.597 89.9333 744.664 93.8C744.664 97.0667 743.731 100 741.864 102.6C740.064 105.133 737.431 107.133 733.964 108.6C730.564 110.067 726.597 110.8 722.064 110.8ZM777.626 37.3L775.626 85.2H761.126L759.126 37.3H777.626ZM768.626 110.8C765.626 110.8 763.159 109.933 761.226 108.2C759.359 106.4 758.426 104.2 758.426 101.6C758.426 98.9333 759.359 96.7 761.226 94.9C763.159 93.1 765.626 92.2 768.626 92.2C771.559 92.2 773.959 93.1 775.826 94.9C777.759 96.7 778.726 98.9333 778.726 101.6C778.726 104.2 777.759 106.4 775.826 108.2C773.959 109.933 771.559 110.8 768.626 110.8Z" fill="white"/>
<path d="M70.005 144.785C70.005 142.405 70.5417 140.27 71.615 138.38C72.6883 136.467 74.1467 134.973 75.99 133.9C77.8567 132.827 79.9217 132.29 82.185 132.29C84.845 132.29 87.1667 132.932 89.15 134.215C91.1333 135.498 92.58 137.318 93.49 139.675H89.675C88.9983 138.205 88.0183 137.073 86.735 136.28C85.475 135.487 83.9583 135.09 82.185 135.09C80.4817 135.09 78.9533 135.487 77.6 136.28C76.2467 137.073 75.185 138.205 74.415 139.675C73.645 141.122 73.26 142.825 73.26 144.785C73.26 146.722 73.645 148.425 74.415 149.895C75.185 151.342 76.2467 152.462 77.6 153.255C78.9533 154.048 80.4817 154.445 82.185 154.445C83.9583 154.445 85.475 154.06 86.735 153.29C88.0183 152.497 88.9983 151.365 89.675 149.895H93.49C92.58 152.228 91.1333 154.037 89.15 155.32C87.1667 156.58 84.845 157.21 82.185 157.21C79.9217 157.21 77.8567 156.685 75.99 155.635C74.1467 154.562 72.6883 153.08 71.615 151.19C70.5417 149.3 70.005 147.165 70.005 144.785ZM101.416 131.1V157H98.2311V131.1H101.416ZM108.489 134.705C107.883 134.705 107.369 134.495 106.949 134.075C106.529 133.655 106.319 133.142 106.319 132.535C106.319 131.928 106.529 131.415 106.949 130.995C107.369 130.575 107.883 130.365 108.489 130.365C109.073 130.365 109.563 130.575 109.959 130.995C110.379 131.415 110.589 131.928 110.589 132.535C110.589 133.142 110.379 133.655 109.959 134.075C109.563 134.495 109.073 134.705 108.489 134.705ZM110.029 137.82V157H106.844V137.82H110.029ZM114.268 147.375C114.268 145.392 114.664 143.665 115.458 142.195C116.251 140.702 117.348 139.547 118.748 138.73C120.171 137.913 121.793 137.505 123.613 137.505C125.969 137.505 127.906 138.077 129.423 139.22C130.963 140.363 131.978 141.95 132.468 143.98H129.038C128.711 142.813 128.069 141.892 127.113 141.215C126.179 140.538 125.013 140.2 123.613 140.2C121.793 140.2 120.323 140.83 119.203 142.09C118.083 143.327 117.523 145.088 117.523 147.375C117.523 149.685 118.083 151.47 119.203 152.73C120.323 153.99 121.793 154.62 123.613 154.62C125.013 154.62 126.179 154.293 127.113 153.64C128.046 152.987 128.688 152.053 129.038 150.84H132.468C131.954 152.8 130.928 154.375 129.388 155.565C127.848 156.732 125.923 157.315 123.613 157.315C121.793 157.315 120.171 156.907 118.748 156.09C117.348 155.273 116.251 154.118 115.458 152.625C114.664 151.132 114.268 149.382 114.268 147.375ZM147.427 157L139.902 148.53V157H136.717V131.1H139.902V146.325L147.287 137.82H151.732L142.702 147.375L151.767 157H147.427ZM167.946 140.445V151.75C167.946 152.683 168.145 153.348 168.541 153.745C168.938 154.118 169.626 154.305 170.606 154.305H172.951V157H170.081C168.308 157 166.978 156.592 166.091 155.775C165.205 154.958 164.761 153.617 164.761 151.75V140.445H162.276V137.82H164.761V132.99H167.946V137.82H172.951V140.445H167.946ZM186.33 137.47C187.777 137.47 189.084 137.785 190.25 138.415C191.417 139.022 192.327 139.943 192.98 141.18C193.657 142.417 193.995 143.922 193.995 145.695V157H190.845V146.15C190.845 144.237 190.367 142.778 189.41 141.775C188.454 140.748 187.147 140.235 185.49 140.235C183.81 140.235 182.469 140.76 181.465 141.81C180.485 142.86 179.995 144.388 179.995 146.395V157H176.81V131.1H179.995V140.55C180.625 139.57 181.489 138.812 182.585 138.275C183.705 137.738 184.954 137.47 186.33 137.47ZM216.698 146.675C216.698 147.282 216.663 147.923 216.593 148.6H201.263C201.38 150.49 202.021 151.972 203.188 153.045C204.378 154.095 205.813 154.62 207.493 154.62C208.87 154.62 210.013 154.305 210.923 153.675C211.856 153.022 212.51 152.158 212.883 151.085H216.313C215.8 152.928 214.773 154.433 213.233 155.6C211.693 156.743 209.78 157.315 207.493 157.315C205.673 157.315 204.04 156.907 202.593 156.09C201.17 155.273 200.05 154.118 199.233 152.625C198.416 151.108 198.008 149.358 198.008 147.375C198.008 145.392 198.405 143.653 199.198 142.16C199.991 140.667 201.1 139.523 202.523 138.73C203.97 137.913 205.626 137.505 207.493 137.505C209.313 137.505 210.923 137.902 212.323 138.695C213.723 139.488 214.796 140.585 215.543 141.985C216.313 143.362 216.698 144.925 216.698 146.675ZM213.408 146.01C213.408 144.797 213.14 143.758 212.603 142.895C212.066 142.008 211.331 141.343 210.398 140.9C209.488 140.433 208.473 140.2 207.353 140.2C205.743 140.2 204.366 140.713 203.223 141.74C202.103 142.767 201.461 144.19 201.298 146.01H213.408ZM231.878 134.705C231.271 134.705 230.758 134.495 230.338 134.075C229.918 133.655 229.708 133.142 229.708 132.535C229.708 131.928 229.918 131.415 230.338 130.995C230.758 130.575 231.271 130.365 231.878 130.365C232.461 130.365 232.951 130.575 233.348 130.995C233.768 131.415 233.978 131.928 233.978 132.535C233.978 133.142 233.768 133.655 233.348 134.075C232.951 134.495 232.461 134.705 231.878 134.705ZM233.418 137.82V157H230.233V137.82H233.418ZM237.656 147.375C237.656 145.392 238.053 143.665 238.846 142.195C239.64 140.702 240.736 139.547 242.136 138.73C243.56 137.913 245.181 137.505 247.001 137.505C249.358 137.505 251.295 138.077 252.811 139.22C254.351 140.363 255.366 141.95 255.856 143.98H252.426C252.1 142.813 251.458 141.892 250.501 141.215C249.568 140.538 248.401 140.2 247.001 140.2C245.181 140.2 243.711 140.83 242.591 142.09C241.471 143.327 240.911 145.088 240.911 147.375C240.911 149.685 241.471 151.47 242.591 152.73C243.711 153.99 245.181 154.62 247.001 154.62C248.401 154.62 249.568 154.293 250.501 153.64C251.435 152.987 252.076 152.053 252.426 150.84H255.856C255.343 152.8 254.316 154.375 252.776 155.565C251.236 156.732 249.311 157.315 247.001 157.315C245.181 157.315 243.56 156.907 242.136 156.09C240.736 155.273 239.64 154.118 238.846 152.625C238.053 151.132 237.656 149.382 237.656 147.375ZM268.471 157.315C266.674 157.315 265.041 156.907 263.571 156.09C262.124 155.273 260.981 154.118 260.141 152.625C259.324 151.108 258.916 149.358 258.916 147.375C258.916 145.415 259.336 143.688 260.176 142.195C261.039 140.678 262.206 139.523 263.676 138.73C265.146 137.913 266.791 137.505 268.611 137.505C270.431 137.505 272.076 137.913 273.546 138.73C275.016 139.523 276.171 140.667 277.011 142.16C277.874 143.653 278.306 145.392 278.306 147.375C278.306 149.358 277.863 151.108 276.976 152.625C276.113 154.118 274.934 155.273 273.441 156.09C271.948 156.907 270.291 157.315 268.471 157.315ZM268.471 154.515C269.614 154.515 270.688 154.247 271.691 153.71C272.694 153.173 273.499 152.368 274.106 151.295C274.736 150.222 275.051 148.915 275.051 147.375C275.051 145.835 274.748 144.528 274.141 143.455C273.534 142.382 272.741 141.588 271.761 141.075C270.781 140.538 269.719 140.27 268.576 140.27C267.409 140.27 266.336 140.538 265.356 141.075C264.399 141.588 263.629 142.382 263.046 143.455C262.463 144.528 262.171 145.835 262.171 147.375C262.171 148.938 262.451 150.257 263.011 151.33C263.594 152.403 264.364 153.208 265.321 153.745C266.278 154.258 267.328 154.515 268.471 154.515ZM291.839 137.47C294.172 137.47 296.062 138.182 297.509 139.605C298.955 141.005 299.679 143.035 299.679 145.695V157H296.529V146.15C296.529 144.237 296.05 142.778 295.094 141.775C294.137 140.748 292.83 140.235 291.174 140.235C289.494 140.235 288.152 140.76 287.149 141.81C286.169 142.86 285.679 144.388 285.679 146.395V157H282.494V137.82H285.679V140.55C286.309 139.57 287.16 138.812 288.234 138.275C289.33 137.738 290.532 137.47 291.839 137.47ZM318.098 140.445V151.75C318.098 152.683 318.296 153.348 318.693 153.745C319.089 154.118 319.778 154.305 320.758 154.305H323.103V157H320.233C318.459 157 317.129 156.592 316.243 155.775C315.356 154.958 314.913 153.617 314.913 151.75V140.445H312.428V137.82H314.913V132.99H318.098V137.82H323.103V140.445H318.098ZM335.327 157.315C333.53 157.315 331.897 156.907 330.427 156.09C328.98 155.273 327.837 154.118 326.997 152.625C326.18 151.108 325.772 149.358 325.772 147.375C325.772 145.415 326.192 143.688 327.032 142.195C327.895 140.678 329.062 139.523 330.532 138.73C332.002 137.913 333.647 137.505 335.467 137.505C337.287 137.505 338.932 137.913 340.402 138.73C341.872 139.523 343.027 140.667 343.867 142.16C344.73 143.653 345.162 145.392 345.162 147.375C345.162 149.358 344.718 151.108 343.832 152.625C342.968 154.118 341.79 155.273 340.297 156.09C338.803 156.907 337.147 157.315 335.327 157.315ZM335.327 154.515C336.47 154.515 337.543 154.247 338.547 153.71C339.55 153.173 340.355 152.368 340.962 151.295C341.592 150.222 341.907 148.915 341.907 147.375C341.907 145.835 341.603 144.528 340.997 143.455C340.39 142.382 339.597 141.588 338.617 141.075C337.637 140.538 336.575 140.27 335.432 140.27C334.265 140.27 333.192 140.538 332.212 141.075C331.255 141.588 330.485 142.382 329.902 143.455C329.318 144.528 329.027 145.835 329.027 147.375C329.027 148.938 329.307 150.257 329.867 151.33C330.45 152.403 331.22 153.208 332.177 153.745C333.133 154.258 334.183 154.515 335.327 154.515ZM365.47 157.315C364 157.315 362.682 157.07 361.515 156.58C360.349 156.067 359.427 155.367 358.75 154.48C358.074 153.57 357.7 152.532 357.63 151.365H360.92C361.014 152.322 361.457 153.103 362.25 153.71C363.067 154.317 364.129 154.62 365.435 154.62C366.649 154.62 367.605 154.352 368.305 153.815C369.005 153.278 369.355 152.602 369.355 151.785C369.355 150.945 368.982 150.327 368.235 149.93C367.489 149.51 366.334 149.102 364.77 148.705C363.347 148.332 362.18 147.958 361.27 147.585C360.384 147.188 359.614 146.617 358.96 145.87C358.33 145.1 358.015 144.097 358.015 142.86C358.015 141.88 358.307 140.982 358.89 140.165C359.474 139.348 360.302 138.707 361.375 138.24C362.449 137.75 363.674 137.505 365.05 137.505C367.174 137.505 368.889 138.042 370.195 139.115C371.502 140.188 372.202 141.658 372.295 143.525H369.11C369.04 142.522 368.632 141.717 367.885 141.11C367.162 140.503 366.182 140.2 364.945 140.2C363.802 140.2 362.892 140.445 362.215 140.935C361.539 141.425 361.2 142.067 361.2 142.86C361.2 143.49 361.399 144.015 361.795 144.435C362.215 144.832 362.729 145.158 363.335 145.415C363.965 145.648 364.829 145.917 365.925 146.22C367.302 146.593 368.422 146.967 369.285 147.34C370.149 147.69 370.884 148.227 371.49 148.95C372.12 149.673 372.447 150.618 372.47 151.785C372.47 152.835 372.179 153.78 371.595 154.62C371.012 155.46 370.184 156.125 369.11 156.615C368.06 157.082 366.847 157.315 365.47 157.315ZM394.466 146.675C394.466 147.282 394.431 147.923 394.361 148.6H379.031C379.148 150.49 379.79 151.972 380.956 153.045C382.146 154.095 383.581 154.62 385.261 154.62C386.638 154.62 387.781 154.305 388.691 153.675C389.625 153.022 390.278 152.158 390.651 151.085H394.081C393.568 152.928 392.541 154.433 391.001 155.6C389.461 156.743 387.548 157.315 385.261 157.315C383.441 157.315 381.808 156.907 380.361 156.09C378.938 155.273 377.818 154.118 377.001 152.625C376.185 151.108 375.776 149.358 375.776 147.375C375.776 145.392 376.173 143.653 376.966 142.16C377.76 140.667 378.868 139.523 380.291 138.73C381.738 137.913 383.395 137.505 385.261 137.505C387.081 137.505 388.691 137.902 390.091 138.695C391.491 139.488 392.565 140.585 393.311 141.985C394.081 143.362 394.466 144.925 394.466 146.675ZM391.176 146.01C391.176 144.797 390.908 143.758 390.371 142.895C389.835 142.008 389.1 141.343 388.166 140.9C387.256 140.433 386.241 140.2 385.121 140.2C383.511 140.2 382.135 140.713 380.991 141.74C379.871 142.767 379.23 144.19 379.066 146.01H391.176ZM416.171 146.675C416.171 147.282 416.136 147.923 416.066 148.6H400.736C400.852 150.49 401.494 151.972 402.661 153.045C403.851 154.095 405.286 154.62 406.966 154.62C408.342 154.62 409.486 154.305 410.396 153.675C411.329 153.022 411.982 152.158 412.356 151.085H415.786C415.272 152.928 414.246 154.433 412.706 155.6C411.166 156.743 409.252 157.315 406.966 157.315C405.146 157.315 403.512 156.907 402.066 156.09C400.642 155.273 399.522 154.118 398.706 152.625C397.889 151.108 397.481 149.358 397.481 147.375C397.481 145.392 397.877 143.653 398.671 142.16C399.464 140.667 400.572 139.523 401.996 138.73C403.442 137.913 405.099 137.505 406.966 137.505C408.786 137.505 410.396 137.902 411.796 138.695C413.196 139.488 414.269 140.585 415.016 141.985C415.786 143.362 416.171 144.925 416.171 146.675ZM412.881 146.01C412.881 144.797 412.612 143.758 412.076 142.895C411.539 142.008 410.804 141.343 409.871 140.9C408.961 140.433 407.946 140.2 406.826 140.2C405.216 140.2 403.839 140.713 402.696 141.74C401.576 142.767 400.934 144.19 400.771 146.01H412.881ZM438.071 157.315C436.274 157.315 434.641 156.907 433.171 156.09C431.724 155.273 430.581 154.118 429.741 152.625C428.924 151.108 428.516 149.358 428.516 147.375C428.516 145.415 428.936 143.688 429.776 142.195C430.639 140.678 431.806 139.523 433.276 138.73C434.746 137.913 436.391 137.505 438.211 137.505C440.031 137.505 441.676 137.913 443.146 138.73C444.616 139.523 445.771 140.667 446.611 142.16C447.474 143.653 447.906 145.392 447.906 147.375C447.906 149.358 447.462 151.108 446.576 152.625C445.712 154.118 444.534 155.273 443.041 156.09C441.547 156.907 439.891 157.315 438.071 157.315ZM438.071 154.515C439.214 154.515 440.287 154.247 441.291 153.71C442.294 153.173 443.099 152.368 443.706 151.295C444.336 150.222 444.651 148.915 444.651 147.375C444.651 145.835 444.347 144.528 443.741 143.455C443.134 142.382 442.341 141.588 441.361 141.075C440.381 140.538 439.319 140.27 438.176 140.27C437.009 140.27 435.936 140.538 434.956 141.075C433.999 141.588 433.229 142.382 432.646 143.455C432.062 144.528 431.771 145.835 431.771 147.375C431.771 148.938 432.051 150.257 432.611 151.33C433.194 152.403 433.964 153.208 434.921 153.745C435.877 154.258 436.927 154.515 438.071 154.515ZM469.103 137.82V157H465.918V154.165C465.312 155.145 464.46 155.915 463.363 156.475C462.29 157.012 461.1 157.28 459.793 157.28C458.3 157.28 456.958 156.977 455.768 156.37C454.578 155.74 453.633 154.807 452.933 153.57C452.257 152.333 451.918 150.828 451.918 149.055V137.82H455.068V148.635C455.068 150.525 455.547 151.983 456.503 153.01C457.46 154.013 458.767 154.515 460.423 154.515C462.127 154.515 463.468 153.99 464.448 152.94C465.428 151.89 465.918 150.362 465.918 148.355V137.82H469.103ZM477.666 140.935C478.226 139.838 479.019 138.987 480.046 138.38C481.096 137.773 482.368 137.47 483.861 137.47V140.76H483.021C479.451 140.76 477.666 142.697 477.666 146.57V157H474.481V137.82H477.666V140.935ZM503.659 157.315C502.189 157.315 500.87 157.07 499.704 156.58C498.537 156.067 497.615 155.367 496.939 154.48C496.262 153.57 495.889 152.532 495.819 151.365H499.109C499.202 152.322 499.645 153.103 500.439 153.71C501.255 154.317 502.317 154.62 503.624 154.62C504.837 154.62 505.794 154.352 506.494 153.815C507.194 153.278 507.544 152.602 507.544 151.785C507.544 150.945 507.17 150.327 506.424 149.93C505.677 149.51 504.522 149.102 502.959 148.705C501.535 148.332 500.369 147.958 499.459 147.585C498.572 147.188 497.802 146.617 497.149 145.87C496.519 145.1 496.204 144.097 496.204 142.86C496.204 141.88 496.495 140.982 497.079 140.165C497.662 139.348 498.49 138.707 499.564 138.24C500.637 137.75 501.862 137.505 503.239 137.505C505.362 137.505 507.077 138.042 508.384 139.115C509.69 140.188 510.39 141.658 510.484 143.525H507.299C507.229 142.522 506.82 141.717 506.074 141.11C505.35 140.503 504.37 140.2 503.134 140.2C501.99 140.2 501.08 140.445 500.404 140.935C499.727 141.425 499.389 142.067 499.389 142.86C499.389 143.49 499.587 144.015 499.984 144.435C500.404 144.832 500.917 145.158 501.524 145.415C502.154 145.648 503.017 145.917 504.114 146.22C505.49 146.593 506.61 146.967 507.474 147.34C508.337 147.69 509.072 148.227 509.679 148.95C510.309 149.673 510.635 150.618 510.659 151.785C510.659 152.835 510.367 153.78 509.784 154.62C509.2 155.46 508.372 156.125 507.299 156.615C506.249 157.082 505.035 157.315 503.659 157.315ZM523.52 157.315C521.723 157.315 520.09 156.907 518.62 156.09C517.173 155.273 516.03 154.118 515.19 152.625C514.373 151.108 513.965 149.358 513.965 147.375C513.965 145.415 514.385 143.688 515.225 142.195C516.088 140.678 517.255 139.523 518.725 138.73C520.195 137.913 521.84 137.505 523.66 137.505C525.48 137.505 527.125 137.913 528.595 138.73C530.065 139.523 531.22 140.667 532.06 142.16C532.923 143.653 533.355 145.392 533.355 147.375C533.355 149.358 532.912 151.108 532.025 152.625C531.162 154.118 529.983 155.273 528.49 156.09C526.997 156.907 525.34 157.315 523.52 157.315ZM523.52 154.515C524.663 154.515 525.737 154.247 526.74 153.71C527.743 153.173 528.548 152.368 529.155 151.295C529.785 150.222 530.1 148.915 530.1 147.375C530.1 145.835 529.797 144.528 529.19 143.455C528.583 142.382 527.79 141.588 526.81 141.075C525.83 140.538 524.768 140.27 523.625 140.27C522.458 140.27 521.385 140.538 520.405 141.075C519.448 141.588 518.678 142.382 518.095 143.455C517.512 144.528 517.22 145.835 517.22 147.375C517.22 148.938 517.5 150.257 518.06 151.33C518.643 152.403 519.413 153.208 520.37 153.745C521.327 154.258 522.377 154.515 523.52 154.515ZM536.353 147.375C536.353 145.392 536.749 143.665 537.543 142.195C538.336 140.702 539.433 139.547 540.833 138.73C542.256 137.913 543.878 137.505 545.698 137.505C548.054 137.505 549.991 138.077 551.508 139.22C553.048 140.363 554.063 141.95 554.553 143.98H551.123C550.796 142.813 550.154 141.892 549.198 141.215C548.264 140.538 547.098 140.2 545.698 140.2C543.878 140.2 542.408 140.83 541.288 142.09C540.168 143.327 539.608 145.088 539.608 147.375C539.608 149.685 540.168 151.47 541.288 152.73C542.408 153.99 543.878 154.62 545.698 154.62C547.098 154.62 548.264 154.293 549.198 153.64C550.131 152.987 550.773 152.053 551.123 150.84H554.553C554.039 152.8 553.013 154.375 551.473 155.565C549.933 156.732 548.008 157.315 545.698 157.315C543.878 157.315 542.256 156.907 540.833 156.09C539.433 155.273 538.336 154.118 537.543 152.625C536.749 151.132 536.353 149.382 536.353 147.375ZM560.447 134.705C559.841 134.705 559.327 134.495 558.907 134.075C558.487 133.655 558.277 133.142 558.277 132.535C558.277 131.928 558.487 131.415 558.907 130.995C559.327 130.575 559.841 130.365 560.447 130.365C561.031 130.365 561.521 130.575 561.917 130.995C562.337 131.415 562.547 131.928 562.547 132.535C562.547 133.142 562.337 133.655 561.917 134.075C561.521 134.495 561.031 134.705 560.447 134.705ZM561.987 137.82V157H558.802V137.82H561.987ZM566.226 147.34C566.226 145.38 566.622 143.665 567.416 142.195C568.209 140.702 569.294 139.547 570.671 138.73C572.071 137.913 573.622 137.505 575.326 137.505C577.006 137.505 578.464 137.867 579.701 138.59C580.937 139.313 581.859 140.223 582.466 141.32V137.82H585.686V157H582.466V153.43C581.836 154.55 580.891 155.483 579.631 156.23C578.394 156.953 576.947 157.315 575.291 157.315C573.587 157.315 572.047 156.895 570.671 156.055C569.294 155.215 568.209 154.037 567.416 152.52C566.622 151.003 566.226 149.277 566.226 147.34ZM582.466 147.375C582.466 145.928 582.174 144.668 581.591 143.595C581.007 142.522 580.214 141.705 579.211 141.145C578.231 140.562 577.146 140.27 575.956 140.27C574.766 140.27 573.681 140.55 572.701 141.11C571.721 141.67 570.939 142.487 570.356 143.56C569.772 144.633 569.481 145.893 569.481 147.34C569.481 148.81 569.772 150.093 570.356 151.19C570.939 152.263 571.721 153.092 572.701 153.675C573.681 154.235 574.766 154.515 575.956 154.515C577.146 154.515 578.231 154.235 579.211 153.675C580.214 153.092 581.007 152.263 581.591 151.19C582.174 150.093 582.466 148.822 582.466 147.375ZM594.253 131.1V157H591.068V131.1H594.253ZM632.077 137.47C633.571 137.47 634.901 137.785 636.067 138.415C637.234 139.022 638.156 139.943 638.832 141.18C639.509 142.417 639.847 143.922 639.847 145.695V157H636.697V146.15C636.697 144.237 636.219 142.778 635.262 141.775C634.329 140.748 633.057 140.235 631.447 140.235C629.791 140.235 628.472 140.772 627.492 141.845C626.512 142.895 626.022 144.423 626.022 146.43V157H622.872V146.15C622.872 144.237 622.394 142.778 621.437 141.775C620.504 140.748 619.232 140.235 617.622 140.235C615.966 140.235 614.647 140.772 613.667 141.845C612.687 142.895 612.197 144.423 612.197 146.43V157H609.012V137.82H612.197V140.585C612.827 139.582 613.667 138.812 614.717 138.275C615.791 137.738 616.969 137.47 618.252 137.47C619.862 137.47 621.286 137.832 622.522 138.555C623.759 139.278 624.681 140.34 625.287 141.74C625.824 140.387 626.711 139.337 627.947 138.59C629.184 137.843 630.561 137.47 632.077 137.47ZM662.572 146.675C662.572 147.282 662.537 147.923 662.467 148.6H647.137C647.254 150.49 647.895 151.972 649.062 153.045C650.252 154.095 651.687 154.62 653.367 154.62C654.744 154.62 655.887 154.305 656.797 153.675C657.73 153.022 658.384 152.158 658.757 151.085H662.187C661.674 152.928 660.647 154.433 659.107 155.6C657.567 156.743 655.654 157.315 653.367 157.315C651.547 157.315 649.914 156.907 648.467 156.09C647.044 155.273 645.924 154.118 645.107 152.625C644.29 151.108 643.882 149.358 643.882 147.375C643.882 145.392 644.279 143.653 645.072 142.16C645.865 140.667 646.974 139.523 648.397 138.73C649.844 137.913 651.5 137.505 653.367 137.505C655.187 137.505 656.797 137.902 658.197 138.695C659.597 139.488 660.67 140.585 661.417 141.985C662.187 143.362 662.572 144.925 662.572 146.675ZM659.282 146.01C659.282 144.797 659.014 143.758 658.477 142.895C657.94 142.008 657.205 141.343 656.272 140.9C655.362 140.433 654.347 140.2 653.227 140.2C651.617 140.2 650.24 140.713 649.097 141.74C647.977 142.767 647.335 144.19 647.172 146.01H659.282ZM665.586 147.34C665.586 145.38 665.983 143.665 666.776 142.195C667.569 140.702 668.654 139.547 670.031 138.73C671.431 137.913 672.994 137.505 674.721 137.505C676.214 137.505 677.603 137.855 678.886 138.555C680.169 139.232 681.149 140.13 681.826 141.25V131.1H685.046V157H681.826V153.395C681.196 154.538 680.263 155.483 679.026 156.23C677.789 156.953 676.343 157.315 674.686 157.315C672.983 157.315 671.431 156.895 670.031 156.055C668.654 155.215 667.569 154.037 666.776 152.52C665.983 151.003 665.586 149.277 665.586 147.34ZM681.826 147.375C681.826 145.928 681.534 144.668 680.951 143.595C680.368 142.522 679.574 141.705 678.571 141.145C677.591 140.562 676.506 140.27 675.316 140.27C674.126 140.27 673.041 140.55 672.061 141.11C671.081 141.67 670.299 142.487 669.716 143.56C669.133 144.633 668.841 145.893 668.841 147.34C668.841 148.81 669.133 150.093 669.716 151.19C670.299 152.263 671.081 153.092 672.061 153.675C673.041 154.235 674.126 154.515 675.316 154.515C676.506 154.515 677.591 154.235 678.571 153.675C679.574 153.092 680.368 152.263 680.951 151.19C681.534 150.093 681.826 148.822 681.826 147.375ZM692.073 134.705C691.467 134.705 690.953 134.495 690.533 134.075C690.113 133.655 689.903 133.142 689.903 132.535C689.903 131.928 690.113 131.415 690.533 130.995C690.953 130.575 691.467 130.365 692.073 130.365C692.657 130.365 693.147 130.575 693.543 130.995C693.963 131.415 694.173 131.928 694.173 132.535C694.173 133.142 693.963 133.655 693.543 134.075C693.147 134.495 692.657 134.705 692.073 134.705ZM693.613 137.82V157H690.428V137.82H693.613ZM697.852 147.34C697.852 145.38 698.248 143.665 699.042 142.195C699.835 140.702 700.92 139.547 702.297 138.73C703.697 137.913 705.248 137.505 706.952 137.505C708.632 137.505 710.09 137.867 711.327 138.59C712.563 139.313 713.485 140.223 714.092 141.32V137.82H717.312V157H714.092V153.43C713.462 154.55 712.517 155.483 711.257 156.23C710.02 156.953 708.573 157.315 706.917 157.315C705.213 157.315 703.673 156.895 702.297 156.055C700.92 155.215 699.835 154.037 699.042 152.52C698.248 151.003 697.852 149.277 697.852 147.34ZM714.092 147.375C714.092 145.928 713.8 144.668 713.217 143.595C712.633 142.522 711.84 141.705 710.837 141.145C709.857 140.562 708.772 140.27 707.582 140.27C706.392 140.27 705.307 140.55 704.327 141.11C703.347 141.67 702.565 142.487 701.982 143.56C701.398 144.633 701.107 145.893 701.107 147.34C701.107 148.81 701.398 150.093 701.982 151.19C702.565 152.263 703.347 153.092 704.327 153.675C705.307 154.235 706.392 154.515 707.582 154.515C708.772 154.515 709.857 154.235 710.837 153.675C711.84 153.092 712.633 152.263 713.217 151.19C713.8 150.093 714.092 148.822 714.092 147.375Z" fill="white"/>
</svg>
