<svg width="134" height="134" viewBox="0 0 134 134" fill="none" xmlns="http://www.w3.org/2000/svg">
<path d="M19.1429 0C8.58438 0 0 8.58438 0 19.1429V114.857C0 125.416 8.58438 134 19.1429 134H114.857C125.416 134 134 125.416 134 114.857V19.1429C134 8.58438 125.416 0 114.857 0H19.1429ZM108.008 25.125L76.9603 60.5991L113.481 108.875H84.8866L62.5134 79.5924L36.8799 108.875H22.6723L55.8732 70.9183L20.8478 25.125H50.1603L70.4098 51.8951L93.8 25.125H108.008ZM96.7013 100.38L45.883 33.171H37.4183L88.8049 100.38H96.6714H96.7013Z" fill="white"/>
</svg>
