<svg width="2244" height="2244" viewBox="0 0 2244 2244" fill="none" xmlns="http://www.w3.org/2000/svg">
<rect width="2244" height="2244" rx="150" fill="#00729F"/>
<path d="M1479.07 1332.32C1314.1 1455.23 1350.25 1743.54 1393.6 1619.68C1474.11 1690.28 1387.98 1495.76 1528.61 1376.91C1702.02 1230.34 1787.48 857.924 1702.02 869.071C1632.66 913.661 1660.26 1197.31 1479.07 1332.32Z" fill="white"/>
<path d="M838.697 1313.73C987.821 1428.69 1000.54 1747.56 943.978 1611C870.805 1716.35 917.969 1495.81 806.492 1381.86C632.692 1280.29 568.577 886.78 655.378 877.742C741.607 905.171 674.805 1187.4 838.697 1313.73Z" fill="white"/>
<path d="M1501.36 758.833C1501.36 838.185 1565.69 902.513 1645.04 902.513C1724.39 902.513 1788.72 838.185 1788.72 758.833C1788.72 679.481 1724.39 615.153 1645.04 615.153C1565.69 615.153 1501.36 679.481 1501.36 758.833ZM1743.46 758.833C1743.46 813.188 1699.39 857.25 1645.04 857.25C1590.69 857.25 1546.62 813.188 1546.62 758.833C1546.62 704.479 1590.69 660.416 1645.04 660.416C1699.39 660.416 1743.46 704.479 1743.46 758.833Z" fill="white"/>
<path d="M1114.91 1113.08C1114.91 1192.43 1179.24 1256.76 1258.59 1256.76C1337.95 1256.76 1402.27 1192.43 1402.27 1113.08C1402.27 1033.73 1337.95 969.399 1258.59 969.399C1179.24 969.399 1114.91 1033.73 1114.91 1113.08ZM1357.01 1113.08C1357.01 1167.43 1312.95 1211.5 1258.59 1211.5C1204.24 1211.5 1160.18 1167.43 1160.18 1113.08C1160.18 1058.72 1204.24 1014.66 1258.59 1014.66C1312.95 1014.66 1357.01 1058.72 1357.01 1113.08Z" fill="white"/>
<path d="M909.301 815.81C909.301 895.162 973.629 959.49 1052.98 959.49C1132.33 959.49 1196.66 895.162 1196.66 815.81C1196.66 736.458 1132.33 672.13 1052.98 672.13C973.629 672.13 909.301 736.458 909.301 815.81ZM1151.4 815.81C1151.4 870.164 1107.34 914.227 1052.98 914.227C998.627 914.227 954.564 870.164 954.564 815.81C954.564 761.455 998.627 717.393 1052.98 717.393C1107.34 717.393 1151.4 761.455 1151.4 815.81Z" fill="white"/>
<path d="M515.418 758.833C515.418 838.185 579.746 902.513 659.099 902.513C738.451 902.513 802.779 838.185 802.779 758.833C802.779 679.481 738.451 615.153 659.099 615.153C579.746 615.153 515.418 679.481 515.418 758.833ZM757.516 758.833C757.516 813.188 713.453 857.25 659.099 857.25C604.744 857.25 560.681 813.188 560.681 758.833C560.681 704.479 604.744 660.416 659.099 660.416C713.453 660.416 757.516 704.479 757.516 758.833Z" fill="white"/>
<rect width="537.563" height="76.7944" transform="matrix(-1 0 0 1 1434.08 1606.05)" fill="white"/>
<rect width="445.905" height="76.7944" transform="matrix(-1 0 0 1 1387.41 1715.05)" fill="white"/>
<path d="M1345.29 1824.05H983.617V1885.98L1144.66 1977.89C1160.45 1986.9 1179.9 1986.63 1195.43 1977.18L1345.29 1885.98V1824.05Z" fill="white"/>
<path d="M1065.37 1295.16C1167.78 1458.65 1185.86 1751.5 1129.3 1614.95C1078.6 1711.33 1059.12 1471.04 1000.51 1355.85C932.441 1222.08 927.486 953.298 1000.51 919.855C1045.55 963.207 1030 1238.69 1065.37 1295.16Z" fill="white"/>
<path d="M686.963 625.963C737.161 543.848 807.637 476.025 891.617 429.014C975.598 382.002 1070.26 357.382 1166.5 357.521C1262.75 357.66 1357.34 382.552 1441.18 429.805C1525.02 477.058 1595.31 545.084 1645.27 627.344L1565.46 675.817C1523.81 607.247 1465.23 550.542 1395.33 511.153C1325.44 471.764 1246.59 451.014 1166.37 450.898C1086.14 450.783 1007.23 471.305 937.229 510.493C867.225 549.681 808.477 606.217 766.633 674.666L686.963 625.963Z" fill="white"/>
<path d="M970.1 407.272C1041.45 407.077 1111.65 425.238 1173.95 460.009C1236.26 494.781 1288.57 544.993 1325.86 605.821C1363.15 666.648 1384.17 736.046 1386.9 807.343C1389.63 878.641 1373.97 949.441 1341.43 1012.94L1279.82 981.368C1306.94 928.438 1320 869.42 1317.73 809.988C1315.45 750.556 1297.93 692.708 1266.85 642.003C1235.76 591.298 1192.15 549.442 1140.22 520.457C1088.28 491.473 1029.76 476.334 970.29 476.497L970.1 407.272Z" fill="white"/>
</svg>
